<?xml version="1.0" encoding="utf-8"?><svg xmlns="http://www.w3.org/2000/svg" xmlns:xlink="http://www.w3.org/1999/xlink"><symbol viewBox="0 0 24 24" id="arrow-left" xmlns="http://www.w3.org/2000/svg"><path d="M4 13l7 7H8l-8-8 8-8h3l-7 7h20v2H4z"/></symbol><symbol viewBox="0 0 24 24" id="arrow-right" xmlns="http://www.w3.org/2000/svg"><path d="M20 13l-7 7h3l8-8-8-8h-3l7 7H0v2h20z"/></symbol><symbol viewBox="0 0 24 24" id="phone" xmlns="http://www.w3.org/2000/svg"><path d="M14.868 2.065l-1.813-.66a.5.5 0 00-.66.363l-1.408 6.404a.5.5 0 00.317.577l1.469.535c3.288 1.197.424 7.603-2.395 6.577l-1.964-.714a.5.5 0 00-.598.21L4.371 21.02a.5.5 0 00.257.73l2.715.988c5.838 2.125 8.46-2.774 10.682-8.882 1.882-5.168 2.68-9.666-3.157-11.791z"/></symbol></svg>