<?xml version="1.0" encoding="utf-8"?>
<svg xmlns="http://www.w3.org/2000/svg" xmlns:xlink="http://www.w3.org/1999/xlink" x="0px" y="0px"
	 viewBox="0 0 109.1 109.1" enable-background="new 0 0 109.1 109.1" xml:space="preserve">
<path fill="#0C1B66" d="M40,99.8H23V9.4h34.3c8.8,0,15.5,2.5,20.2,7.5s7,11.8,7,20.5c0,6.6-1.6,12.3-4.7,16.8
	c-3,4.5-7.4,7.3-13.1,8.5l19.3,37H67.5L50.2,64.7H40V99.8z M53.9,51.5c4.6,0,7.9-0.9,9.8-2.7c2-1.9,3-4.9,3-8.9v-4.9
	c0-4.1-1-7-3-8.8c-2-1.9-5.3-2.8-9.8-2.8H40v28.2H53.9z"/>
</svg>
